<?xml version="1.0" encoding="utf-8"?>
<!DOCTYPE svg PUBLIC "-//W3C//DTD SVG 1.0//EN" "http://www.w3.org/TR/2001/REC-SVG-20010904/DTD/svg10.dtd" [
	<!ENTITY ns_flows "http://ns.adobe.com/Flows/1.0/">
	<!ENTITY ns_svg "http://www.w3.org/2000/svg">
	<!ENTITY ns_xlink "http://www.w3.org/1999/xlink">
]>
<svg  xmlns="&ns_svg;" xmlns:xlink="&ns_xlink;" xmlns:a="http://ns.adobe.com/AdobeSVGViewerExtensions/3.0/"
	 width="340.157" height="170.078" viewBox="0 0 340.157 170.078" overflow="visible" enable-background="new 0 0 340.157 170.078"
	 xml:space="preserve">
	<g id="Logo">
		<g>
			<path fill-rule="evenodd" clip-rule="evenodd" d="M0,0h170.079v57.26H0V0z"/>
			<path fill-rule="evenodd" clip-rule="evenodd" fill="#FFFFFF" d="M112.252,0h2.268v40.819h-2.268V0z"/>
			<path fill-rule="evenodd" clip-rule="evenodd" fill="#FFFFFF" d="M55.559,15.874h2.268V57.26h-2.268V15.874z"/>
			<path fill="#FFFFFF" d="M29.579,41.104c-7.525,0-12.805-5.215-12.805-12.836c0-7.301,5.596-12.678,12.743-12.678
				c3.509,0,7.208,0.82,9.516,3.919l-3.509,3.479c-0.918-1.488-3.193-2.529-5.945-2.529c-3.858,0-7.272,3.004-7.272,7.809
				c0,4.553,2.847,8.061,7.526,8.061c1.359,0,4.456-0.281,6.29-3.633l3.796,2.846C37.104,40.092,32.93,41.104,29.579,41.104z"/>
			<path fill="#FFFFFF" d="M141.845,41.023c-7.24,0-10.215-4.456-10.215-9.987V16.237h5.567v14.352c0,3.797,1.328,5.504,4.679,5.504
				c3.32,0,4.395-1.74,4.395-5.504V16.237h5.563v14.799C151.834,36.282,149.116,41.023,141.845,41.023z"/>
			<path fill="#FFFFFF" d="M91.347,40.773l-2.561-5.656h-7.493l-2.563,5.656h-5.912l12.22-25.986L97.26,40.773H91.347z
				 M85.039,26.515L82.873,31.1h4.333L85.039,26.515z"/>
			<path fill-rule="evenodd" clip-rule="evenodd" fill="#D9D9D9" d="M0,56.693h340.157v57.26H0V56.693z"/>
			<path fill-rule="evenodd" clip-rule="evenodd" fill="#003D86" d="M0,113.387h340.157v56.691H0V113.387z"/>
			<path d="M331.148,104.934v-1.563h-0.81c-0.738,0-0.99-0.361-0.99-1.063V92.121h-1.834v10.295c0,1.35,0.756,2.518,2.5,2.518
				H331.148z M323.049,99.627h-4.104c0.019-0.559,0.055-0.828,0.234-1.242c0.288-0.686,0.954-1.154,1.818-1.154
				c0.863,0,1.512,0.469,1.8,1.154C322.977,98.799,323.03,99.068,323.049,99.627z M324.866,100.902v-0.809
				c0-2.594-1.422-4.391-3.869-4.391c-2.339,0-3.866,1.707-3.866,4.662c0,3.473,1.813,4.678,4.1,4.678
				c1.603,0,2.484-0.486,3.421-1.42l-1.171-1.098c-0.647,0.646-1.188,0.936-2.214,0.936c-1.494,0-2.322-0.99-2.322-2.559H324.866z
				 M314.769,95.809h-1.834v9.125h1.834V95.809z M314.822,92.066h-1.941v1.941h1.941V92.066z M310.667,104.934l-4.59-7.791
				l4.157-5.021h-2.376l-5.237,6.443v-6.443h-1.942v12.813h1.942v-3.723l2.159-2.592l3.601,6.314H310.667z M293.163,104.934v-9.123
				h-1.834v5.563c0,1.404-0.864,2.033-1.891,2.033c-1.027,0-1.838-0.611-1.838-2.033v-5.563h-1.834v5.832
				c0,1.025,0.217,1.891,0.918,2.574c0.538,0.52,1.313,0.826,2.25,0.826c0.918,0,1.8-0.342,2.43-1.023v0.914H293.163z
				 M283.265,104.934v-1.635h-4.572l4.572-6.033v-1.455h-6.552v1.637h4.284l-4.536,6.031v1.455H283.265z M270.782,104.934v-1.563
				h-0.756c-0.684,0-1.008-0.396-1.008-1.063v-4.934h1.764v-1.402h-1.764v-2.771h-1.834v2.771h-1.044v1.402h1.044v5.023
				c0,1.314,0.792,2.535,2.5,2.535H270.782z M262.037,101.641c0,0.65-0.126,1.082-0.396,1.352c-0.486,0.469-1.008,0.521-1.712,0.521
				c-1.152,0-1.674-0.467-1.674-1.295c0-0.83,0.558-1.316,1.638-1.316h2.145V101.641z M263.871,104.934v-6.1
				c0-2.072-1.259-3.131-3.763-3.131c-1.512,0-2.412,0.305-3.273,1.311l1.204,1.137c0.504-0.65,0.989-0.885,1.998-0.885
				c1.424,0,2,0.559,2,1.713v0.648h-2.414c-2.088,0-3.148,1.096-3.148,2.627c0,0.775,0.252,1.477,0.72,1.963
				c0.557,0.557,1.313,0.826,2.447,0.826s1.765-0.27,2.431-0.934v0.824H263.871z M259.209,92.121h-1.654v1.941h1.654V92.121z
				 M263.097,92.121h-1.654v1.941h1.654V92.121z M254.187,104.934v-1.563h-0.756c-0.684,0-1.008-0.396-1.008-1.063v-4.934h1.764
				v-1.402h-1.764v-2.771h-1.834v2.771h-1.044v1.402h1.044v5.023c0,1.314,0.792,2.535,2.5,2.535H254.187z M247.185,95.809h-1.833
				v9.125h1.833V95.809z M247.238,92.066h-1.941v1.941h1.941V92.066z M242.486,102.146c0-1.619-1.006-2.43-2.716-2.574l-1.441-0.125
				c-0.973-0.09-1.261-0.504-1.261-1.045c0-0.686,0.559-1.172,1.658-1.172c0.864,0,1.674,0.18,2.25,0.666l1.15-1.17
				c-0.845-0.736-2.015-1.023-3.382-1.023c-1.91,0-3.438,1.008-3.438,2.789c0,1.602,0.99,2.375,2.698,2.518l1.46,0.127
				c0.882,0.072,1.224,0.469,1.224,1.082c0,0.863-0.881,1.26-1.998,1.26c-0.901,0-1.892-0.197-2.628-0.953l-1.206,1.205
				c1.08,1.061,2.338,1.313,3.834,1.313C240.869,105.043,242.486,104.055,242.486,102.146z M234.513,96.566
				c-0.63-0.629-1.296-0.863-2.178-0.863c-1.026,0-1.962,0.449-2.431,1.098v-0.99h-1.798v9.123h1.834v-5.543
				c0-1.26,0.828-2.053,1.818-2.053c0.63,0,0.954,0.199,1.368,0.613L234.513,96.566z M223.587,99.627h-4.104
				c0.019-0.559,0.055-0.828,0.234-1.242c0.288-0.686,0.954-1.154,1.818-1.154c0.863,0,1.512,0.469,1.8,1.154
				C223.515,98.799,223.568,99.068,223.587,99.627z M225.404,100.902v-0.809c0-2.594-1.422-4.391-3.869-4.391
				c-2.341,0-3.868,1.707-3.868,4.662c0,3.473,1.815,4.678,4.102,4.678c1.603,0,2.484-0.486,3.42-1.42l-1.17-1.098
				c-0.647,0.646-1.188,0.936-2.214,0.936c-1.494,0-2.322-0.99-2.322-2.559H225.404z M216.442,95.811h-1.943l-2.143,6.426
				l-2.16-6.426h-1.943l3.348,9.123h1.494L216.442,95.811z M206.379,95.809h-1.834v9.125h1.834V95.809z M206.434,92.066h-1.943
				v1.941h1.943V92.066z M201.448,104.934v-5.83c0-1.027-0.216-1.891-0.918-2.572c-0.54-0.523-1.312-0.828-2.25-0.828
				c-0.918,0-1.8,0.342-2.43,1.025v-0.918h-1.798v9.123h1.834v-5.561c0-1.404,0.864-2.035,1.89-2.035
				c1.026,0,1.838,0.613,1.838,2.035v5.561H201.448z M190.847,100.617v-8.496h-1.942v8.406c0,1.709-1.062,2.771-2.666,2.771
				c-1.602,0-2.646-1.063-2.646-2.771v-8.406h-1.942v8.496c0,2.645,1.979,4.426,4.588,4.426
				C188.851,105.043,190.847,103.262,190.847,100.617z M178.696,99.086h-5.254v1.709h5.254V99.086z M170.831,102.146
				c0-1.619-1.008-2.43-2.717-2.574l-1.441-0.125c-0.973-0.09-1.26-0.504-1.26-1.045c0-0.686,0.558-1.172,1.655-1.172
				c0.866,0,1.677,0.18,2.252,0.666l1.15-1.17c-0.844-0.736-2.013-1.023-3.384-1.023c-1.908,0-3.437,1.008-3.437,2.789
				c0,1.602,0.989,2.375,2.699,2.518l1.459,0.127c0.882,0.072,1.224,0.469,1.224,1.082c0,0.863-0.882,1.26-2,1.26
				c-0.9,0-1.89-0.197-2.628-0.953l-1.204,1.205c1.078,1.061,2.339,1.313,3.833,1.313
				C169.213,105.043,170.831,104.055,170.831,102.146z M161.831,104.934v-1.563h-0.757c-0.683,0-1.007-0.396-1.007-1.063v-4.934
				h1.764v-1.402h-1.764v-2.771h-1.834v2.771h-1.044v1.402h1.044v5.023c0,1.314,0.792,2.535,2.5,2.535H161.831z M154.919,104.934
				v-5.885c0-1.98-1.131-3.346-3.166-3.346c-0.902,0-1.73,0.342-2.36,1.025v-4.607h-1.834v12.813h1.834v-5.598
				c0-1.367,0.828-1.998,1.854-1.998c1.027,0,1.838,0.613,1.838,1.998v5.598H154.919z M145.164,103.748l-1.261-1.205
				c-0.576,0.629-1.025,0.863-1.746,0.863c-0.701,0-1.296-0.287-1.691-0.811c-0.397-0.504-0.541-1.17-0.541-2.23
				c0-1.063,0.144-1.713,0.541-2.217c0.395-0.521,0.99-0.811,1.691-0.811c0.721,0,1.17,0.234,1.746,0.865l1.261-1.225
				c-0.865-0.916-1.746-1.275-3.007-1.275c-2.052,0-4.065,1.24-4.065,4.662c0,3.42,2.014,4.678,4.065,4.678
				C143.417,105.043,144.299,104.664,145.164,103.748z M134.039,99.627h-4.104c0.019-0.559,0.054-0.828,0.235-1.242
				c0.288-0.686,0.954-1.154,1.817-1.154c0.864,0,1.513,0.469,1.801,1.154C133.967,98.799,134.021,99.068,134.039,99.627z
				 M135.856,100.902v-0.809c0-2.594-1.422-4.391-3.87-4.391c-2.34,0-3.867,1.707-3.867,4.662c0,3.473,1.815,4.678,4.102,4.678
				c1.602,0,2.484-0.486,3.42-1.42l-1.169-1.098c-0.648,0.646-1.189,0.936-2.214,0.936c-1.495,0-2.323-0.99-2.323-2.559H135.856z
				 M127.4,96.566c-0.63-0.629-1.296-0.863-2.178-0.863c-1.026,0-1.962,0.449-2.43,1.098v-0.99h-1.798v9.123h1.834v-5.543
				c0-1.26,0.827-2.053,1.818-2.053c0.63,0,0.954,0.199,1.368,0.613L127.4,96.566z M116.404,100.365c0,1.619-0.233,3.041-1.89,3.041
				c-1.658,0-1.91-1.422-1.91-3.041c0-1.623,0.252-3.027,1.91-3.027C116.171,97.338,116.404,98.742,116.404,100.365z
				 M118.238,100.365c0-1.389-0.107-2.938-1.023-3.854c-0.504-0.504-1.296-0.809-2.214-0.809c-0.973,0-1.73,0.234-2.396,1.025
				v-4.607h-1.834v12.813h1.798v-0.969c0.685,0.826,1.424,1.078,2.415,1.078c0.918,0,1.728-0.307,2.232-0.809
				C118.131,103.316,118.238,101.75,118.238,100.365z M108.482,104.934v-1.563h-0.81c-0.738,0-0.99-0.361-0.99-1.063V92.121h-1.834
				v10.295c0,1.35,0.756,2.518,2.5,2.518H108.482z M99.179,100.707h-3.942l1.999-5.688L99.179,100.707z M102.671,104.934
				l-4.698-12.813h-1.566l-4.697,12.813h2.069l0.882-2.572h5.058l0.882,2.572H102.671z M90.087,99.086h-5.254v1.709h5.254V99.086z
				 M81.986,104.934v-5.83c0-1.027-0.213-1.891-0.916-2.572c-0.54-0.523-1.313-0.828-2.25-0.828c-0.918,0-1.799,0.342-2.432,1.025
				v-0.918h-1.796v9.123h1.832v-5.561c0-1.404,0.866-2.035,1.892-2.035s1.837,0.613,1.837,2.035v5.561H81.986z M70.021,101.641
				c0,0.65-0.126,1.082-0.397,1.352c-0.486,0.469-1.009,0.521-1.71,0.521c-1.152,0-1.676-0.467-1.676-1.295
				c0-0.83,0.56-1.316,1.64-1.316h2.144V101.641z M71.853,104.934v-6.1c0-2.072-1.258-3.131-3.76-3.131
				c-1.511,0-2.412,0.305-3.276,1.311l1.207,1.137c0.503-0.65,0.99-0.885,1.998-0.885c1.421,0,2,0.559,2,1.713v0.648h-2.414
				c-2.088,0-3.147,1.096-3.147,2.627c0,0.775,0.25,1.477,0.718,1.963c0.557,0.557,1.313,0.826,2.448,0.826
				c1.134,0,1.764-0.27,2.432-0.934v0.824H71.853z M61.955,95.809h-1.834v9.125h1.834V95.809z M62.009,92.066h-1.942v1.941h1.942
				V92.066z M57.149,104.934v-1.563h-0.756c-0.684,0-1.008-0.396-1.008-1.063v-4.934h1.764v-1.402h-1.764v-2.771h-1.836v2.771
				h-1.042v1.402h1.042v5.023c0,1.314,0.792,2.535,2.502,2.535H57.149z M50.65,102.146c0-1.619-1.008-2.43-2.716-2.574l-1.442-0.125
				c-0.972-0.09-1.26-0.504-1.26-1.045c0-0.686,0.559-1.172,1.657-1.172c0.866,0,1.676,0.18,2.252,0.666l1.15-1.17
				c-0.845-0.736-2.015-1.023-3.384-1.023c-1.907,0-3.436,1.008-3.436,2.789c0,1.602,0.988,2.375,2.698,2.518l1.46,0.127
				c0.882,0.072,1.224,0.469,1.224,1.082c0,0.863-0.882,1.26-2,1.26c-0.899,0-1.889-0.197-2.627-0.953l-1.204,1.205
				c1.078,1.061,2.338,1.313,3.832,1.313C49.033,105.043,50.65,104.055,50.65,102.146z M40.715,95.809h-1.834v9.125h1.834V95.809z
				 M40.769,92.066h-1.941v1.941h1.941V92.066z M37.115,96.566c-0.63-0.629-1.296-0.863-2.178-0.863
				c-1.025,0-1.961,0.449-2.429,1.098v-0.99h-1.798v9.123h1.833v-5.543c0-1.26,0.828-2.053,1.817-2.053
				c0.63,0,0.954,0.199,1.368,0.613L37.115,96.566z M27.611,104.934v-5.885c0-1.98-1.132-3.346-3.167-3.346
				c-0.901,0-1.729,0.342-2.359,1.025v-4.607h-1.833v12.813h1.833v-5.598c0-1.367,0.828-1.998,1.854-1.998
				c1.028,0,1.838,0.613,1.838,1.998v5.598H27.611z M17.243,101.104H15.28c-0.305,1.295-1.188,2.195-2.609,2.195
				c-0.756,0-1.44-0.289-1.891-0.773c-0.629-0.686-0.773-1.422-0.773-3.996c0-2.576,0.144-3.314,0.773-3.998
				c0.451-0.486,1.135-0.775,1.891-0.775c1.422,0,2.287,0.9,2.592,2.197h1.98c-0.45-2.557-2.214-3.941-4.572-3.941
				c-1.332,0-2.484,0.486-3.366,1.367c-1.258,1.26-1.241,2.682-1.241,5.15c0,2.465-0.018,3.887,1.241,5.146
				c0.881,0.881,2.034,1.367,3.366,1.367C14.993,105.043,16.811,103.658,17.243,101.104z"/>
			<path fill-rule="evenodd" clip-rule="evenodd" fill="#FFFFFF" d="M16.626,148.787h-9v1.746h3.528v11.07h1.944v-11.07h3.528
				V148.787z"/>
			<path fill-rule="evenodd" clip-rule="evenodd" fill="#FFFFFF" d="M24.899,157.572v-0.773c0-2.664-1.422-4.43-3.87-4.43
				c-2.34,0-3.87,1.693-3.87,4.662c0,3.475,1.818,4.684,4.104,4.684c1.602,0,2.484-0.488,3.42-1.426l-1.17-1.098
				c-0.648,0.648-1.188,0.936-2.214,0.936c-1.512,0-2.322-0.971-2.322-2.555H24.899z M23.081,156.295h-4.104
				c0.018-0.559,0.054-0.848,0.234-1.242c0.306-0.686,0.936-1.152,1.818-1.152c0.864,0,1.494,0.467,1.8,1.152
				C23.009,155.447,23.045,155.736,23.081,156.295z"/>
			<path fill-rule="evenodd" clip-rule="evenodd" fill="#FFFFFF" d="M31.156,152.369c-2.052,0-4.068,1.242-4.068,4.662
				s2.016,4.684,4.068,4.684c1.26,0,2.142-0.381,3.006-1.299l-1.26-1.205c-0.576,0.629-1.026,0.863-1.746,0.863
				c-0.702,0-1.296-0.289-1.692-0.811c-0.396-0.504-0.54-1.17-0.54-2.232c0-1.061,0.144-1.709,0.54-2.213
				c0.396-0.521,0.99-0.811,1.692-0.811c0.72,0,1.17,0.234,1.746,0.863l1.26-1.223C33.298,152.73,32.416,152.369,31.156,152.369z"/>
			<path fill-rule="evenodd" clip-rule="evenodd" fill="#FFFFFF" d="M38.295,148.787h-1.836v12.816h1.836v-5.561
				c0-1.404,0.864-2.035,1.89-2.035c1.026,0,1.836,0.611,1.836,2.035v5.561h1.836v-5.832c0-1.025-0.216-1.889-0.918-2.574
				c-0.54-0.521-1.314-0.828-2.25-0.828s-1.782,0.344-2.394,1.027V148.787z"/>
			<path fill-rule="evenodd" clip-rule="evenodd" fill="#FFFFFF" d="M51.085,152.369c-0.918,0-1.8,0.344-2.43,1.027v-0.918h-1.8
				v9.125h1.836v-5.561c0-1.404,0.864-2.035,1.89-2.035s1.836,0.611,1.836,2.035v5.561h1.836v-5.832
				c0-1.025-0.216-1.889-0.918-2.574C52.795,152.676,52.021,152.369,51.085,152.369z"/>
			<path fill-rule="evenodd" clip-rule="evenodd" fill="#FFFFFF" d="M59.088,152.479h-1.836v9.125h1.836V152.479z M59.142,148.734
				h-1.944v1.943h1.944V148.734z"/>
			<path fill-rule="evenodd" clip-rule="evenodd" fill="#FFFFFF" d="M65.183,152.369c-1.908,0-3.438,0.99-3.438,2.791
				c0,1.602,0.972,2.357,2.7,2.52l1.458,0.127c0.882,0.09,1.224,0.449,1.224,1.08c0,0.863-0.864,1.26-1.998,1.26
				c-0.9,0-1.89-0.199-2.628-0.955l-1.206,1.207c1.08,1.061,2.34,1.316,3.834,1.316c2.178,0,3.798-0.992,3.798-2.9
				c0-1.604-0.99-2.43-2.88-2.592l-1.278-0.109c-0.9-0.09-1.26-0.414-1.26-1.043c0-0.703,0.54-1.17,1.656-1.17
				c0.864,0,1.674,0.18,2.25,0.666l1.152-1.17C67.721,152.658,66.569,152.369,65.183,152.369z"/>
			<path fill-rule="evenodd" clip-rule="evenodd" fill="#FFFFFF" d="M74.968,152.369c-2.052,0-4.068,1.242-4.068,4.662
				s2.016,4.684,4.068,4.684c1.26,0,2.142-0.381,3.006-1.299l-1.26-1.205c-0.576,0.629-1.026,0.863-1.746,0.863
				c-0.702,0-1.296-0.289-1.692-0.811c-0.396-0.504-0.54-1.17-0.54-2.232c0-1.061,0.144-1.709,0.54-2.213
				c0.396-0.521,0.99-0.811,1.692-0.811c0.72,0,1.17,0.234,1.746,0.863l1.26-1.223C77.11,152.73,76.228,152.369,74.968,152.369z"/>
			<path fill-rule="evenodd" clip-rule="evenodd" fill="#FFFFFF" d="M82.107,148.787h-1.836v12.816h1.836v-5.561
				c0-1.404,0.864-2.035,1.89-2.035c1.026,0,1.836,0.611,1.836,2.035v5.561h1.836v-5.832c0-1.025-0.216-1.889-0.917-2.574
				c-0.54-0.521-1.314-0.828-2.25-0.828c-0.936,0-1.782,0.344-2.394,1.027V148.787z"/>
			<path fill-rule="evenodd" clip-rule="evenodd" fill="#FFFFFF" d="M97.939,157.572v-0.773c0-2.664-1.422-4.43-3.87-4.43
				c-2.34,0-3.87,1.693-3.87,4.662c0,3.475,1.818,4.684,4.104,4.684c1.602,0,2.484-0.488,3.42-1.426l-1.17-1.098
				c-0.648,0.648-1.188,0.936-2.213,0.936c-1.512,0-2.322-0.971-2.322-2.555H97.939z M96.122,156.295h-4.104
				c0.018-0.559,0.054-0.848,0.234-1.242c0.306-0.686,0.936-1.152,1.818-1.152c0.864,0,1.494,0.467,1.8,1.152
				C96.049,155.447,96.085,155.736,96.122,156.295z"/>
			<path fill-rule="evenodd" clip-rule="evenodd" fill="#FFFFFF" d="M113.113,148.787h-8.19v12.816h1.944v-5.418h5.328v-1.746
				h-5.328v-3.906h6.246V148.787z"/>
			<path fill-rule="evenodd" clip-rule="evenodd" fill="#FFFFFF" d="M117.822,152.369c-1.53,0-2.412,0.324-3.258,1.332l1.188,1.135
				c0.522-0.648,1.026-0.9,1.999-0.9c1.44,0,1.998,0.541,1.998,1.711v0.648h-2.394c-2.106,0-3.168,1.098-3.168,2.627
				c0,0.773,0.252,1.477,0.72,1.963c0.558,0.557,1.314,0.83,2.448,0.83c1.134,0,1.764-0.273,2.43-0.939v0.828h1.8v-6.102
				C121.584,153.449,120.342,152.369,117.822,152.369z M119.748,157.572v0.738c0,0.646-0.108,1.08-0.396,1.35
				c-0.486,0.449-1.008,0.521-1.656,0.521c-1.206,0-1.728-0.449-1.728-1.295c0-0.848,0.558-1.314,1.674-1.314H119.748z"/>
			<path fill-rule="evenodd" clip-rule="evenodd" fill="#FFFFFF" d="M126.419,148.787h-1.836v12.816h1.836v-2.682l1.35-1.529
				l2.556,4.211h2.268l-3.564-5.543l3.168-3.582h-2.232l-3.546,4.211V148.787z"/>
			<path fill-rule="evenodd" clip-rule="evenodd" fill="#FFFFFF" d="M141.748,152.479h-1.836v5.561c0,1.404-0.864,2.035-1.89,2.035
				c-1.026,0-1.836-0.611-1.836-2.035v-5.561h-1.836v5.832c0,1.025,0.216,1.889,0.918,2.574c0.54,0.521,1.313,0.83,2.25,0.83
				c0.918,0,1.8-0.346,2.43-1.029v0.918h1.8V152.479z"/>
			<path fill-rule="evenodd" clip-rule="evenodd" fill="#FFFFFF" d="M146.618,148.787h-1.836v9.99c0,1.854,0.864,2.826,2.628,2.826
				h1.008v-1.637h-0.81c-0.738,0-0.99-0.324-0.99-1.297V148.787z"/>
			<path fill-rule="evenodd" clip-rule="evenodd" fill="#FFFFFF" d="M152.516,149.867h-1.836v2.611h-1.044v1.404h1.044v5.184
				c0,1.332,0.792,2.537,2.502,2.537h1.098v-1.566h-0.756c-0.684,0-1.008-0.377-1.008-1.061v-5.094h1.764v-1.404h-1.764V149.867z"/>
			<path fill-rule="evenodd" clip-rule="evenodd" fill="#FFFFFF" d="M159.654,152.369c-1.53,0-2.412,0.324-3.258,1.332l1.188,1.135
				c0.522-0.648,1.026-0.9,1.998-0.9c1.44,0,1.998,0.541,1.998,1.711v0.648h-2.394c-2.106,0-3.168,1.098-3.168,2.627
				c0,0.773,0.252,1.477,0.72,1.963c0.558,0.557,1.314,0.83,2.448,0.83s1.764-0.273,2.43-0.939v0.828h1.8v-6.102
				C163.416,153.449,162.174,152.369,159.654,152.369z M161.58,157.572v0.738c0,0.646-0.108,1.08-0.396,1.35
				c-0.486,0.449-1.008,0.521-1.656,0.521c-1.206,0-1.728-0.449-1.728-1.295c0-0.848,0.558-1.314,1.674-1.314H161.58z
				 M162.66,148.787h-1.656v1.945h1.656V148.787z M158.772,148.787h-1.656v1.945h1.656V148.787z"/>
			<path fill-rule="evenodd" clip-rule="evenodd" fill="#FFFFFF" d="M168.467,149.867h-1.836v2.611h-1.044v1.404h1.044v5.184
				c0,1.332,0.792,2.537,2.502,2.537h1.098v-1.566h-0.755c-0.684,0-1.008-0.377-1.008-1.061v-5.094h1.764v-1.404h-1.764V149.867z"/>
		</g>
	</g>
</svg>
